<svg xmlns="http://www.w3.org/2000/svg" viewBox="0 0 800 500" fill="none">
  <!-- Background -->
  <rect width="800" height="500" fill="#f8fafc"/>
  
  <!-- Aisle Frame -->
  <rect x="50" y="30" width="700" height="440" rx="8" fill="#e2e8f0" stroke="#94a3b8" stroke-width="2"/>
  
  <!-- Header -->
  <rect x="50" y="30" width="700" height="40" rx="8" fill="#6366f1"/>
  <text x="400" y="57" text-anchor="middle" fill="white" font-family="Arial" font-size="16" font-weight="bold">BEVERAGE AISLE - PREMIUM</text>
  
  <!-- Shelf 1 - Premium Waters -->
  <rect x="70" y="85" width="660" height="70" fill="#ffffff" stroke="#cbd5e1" stroke-width="1"/>
  <rect x="80" y="95" width="40" height="50" rx="2" fill="#0ea5e9"/>
  <rect x="125" y="95" width="40" height="50" rx="2" fill="#0ea5e9"/>
  <rect x="170" y="95" width="40" height="50" rx="2" fill="#06b6d4"/>
  <rect x="215" y="95" width="40" height="50" rx="2" fill="#06b6d4"/>
  <rect x="260" y="95" width="40" height="50" rx="2" fill="#14b8a6"/>
  <rect x="305" y="95" width="40" height="50" rx="2" fill="#14b8a6"/>
  <rect x="350" y="95" width="40" height="50" rx="2" fill="#22c55e"/>
  <rect x="395" y="95" width="40" height="50" rx="2" fill="#22c55e"/>
  <rect x="440" y="95" width="40" height="50" rx="2" fill="#84cc16"/>
  <rect x="485" y="95" width="40" height="50" rx="2" fill="#84cc16"/>
  <rect x="530" y="95" width="40" height="50" rx="2" fill="#eab308"/>
  <rect x="575" y="95" width="40" height="50" rx="2" fill="#eab308"/>
  <rect x="620" y="95" width="40" height="50" rx="2" fill="#f97316"/>
  <rect x="665" y="95" width="50" height="50" rx="2" fill="#f97316"/>
  <text x="400" y="160" text-anchor="middle" fill="#475569" font-family="Arial" font-size="11">Premium Waters & Sparkling</text>
  
  <!-- Shelf 2 - Craft Sodas -->
  <rect x="70" y="170" width="660" height="70" fill="#ffffff" stroke="#cbd5e1" stroke-width="1"/>
  <rect x="80" y="180" width="45" height="50" rx="4" fill="#dc2626"/>
  <rect x="130" y="180" width="45" height="50" rx="4" fill="#dc2626"/>
  <rect x="180" y="180" width="45" height="50" rx="4" fill="#ea580c"/>
  <rect x="230" y="180" width="45" height="50" rx="4" fill="#ea580c"/>
  <rect x="280" y="180" width="45" height="50" rx="4" fill="#ca8a04"/>
  <rect x="330" y="180" width="45" height="50" rx="4" fill="#ca8a04"/>
  <rect x="380" y="180" width="45" height="50" rx="4" fill="#65a30d"/>
  <rect x="430" y="180" width="45" height="50" rx="4" fill="#65a30d"/>
  <rect x="480" y="180" width="45" height="50" rx="4" fill="#0d9488"/>
  <rect x="530" y="180" width="45" height="50" rx="4" fill="#0d9488"/>
  <rect x="580" y="180" width="45" height="50" rx="4" fill="#7c3aed"/>
  <rect x="630" y="180" width="45" height="50" rx="4" fill="#7c3aed"/>
  <rect x="680" y="180" width="35" height="50" rx="4" fill="#db2777"/>
  <text x="400" y="245" text-anchor="middle" fill="#475569" font-family="Arial" font-size="11">Craft Sodas & Specialty</text>
  
  <!-- Shelf 3 - Energy Drinks -->
  <rect x="70" y="255" width="660" height="70" fill="#ffffff" stroke="#cbd5e1" stroke-width="1"/>
  <rect x="80" y="265" width="55" height="50" rx="4" fill="#000000"/>
  <rect x="140" y="265" width="55" height="50" rx="4" fill="#000000"/>
  <rect x="200" y="265" width="55" height="50" rx="4" fill="#16a34a"/>
  <rect x="260" y="265" width="55" height="50" rx="4" fill="#16a34a"/>
  <rect x="320" y="265" width="55" height="50" rx="4" fill="#2563eb"/>
  <rect x="380" y="265" width="55" height="50" rx="4" fill="#2563eb"/>
  <rect x="440" y="265" width="55" height="50" rx="4" fill="#dc2626"/>
  <rect x="500" y="265" width="55" height="50" rx="4" fill="#dc2626"/>
  <rect x="560" y="265" width="55" height="50" rx="4" fill="#eab308"/>
  <rect x="620" y="265" width="55" height="50" rx="4" fill="#eab308"/>
  <rect x="680" y="265" width="35" height="50" rx="4" fill="#f97316"/>
  <text x="400" y="330" text-anchor="middle" fill="#475569" font-family="Arial" font-size="11">Energy & Performance Drinks</text>
  
  <!-- Shelf 4 - Juices -->
  <rect x="70" y="340" width="660" height="70" fill="#ffffff" stroke="#cbd5e1" stroke-width="1"/>
  <rect x="80" y="350" width="60" height="50" rx="4" fill="#f97316"/>
  <rect x="145" y="350" width="60" height="50" rx="4" fill="#f97316"/>
  <rect x="210" y="350" width="60" height="50" rx="4" fill="#eab308"/>
  <rect x="275" y="350" width="60" height="50" rx="4" fill="#eab308"/>
  <rect x="340" y="350" width="60" height="50" rx="4" fill="#84cc16"/>
  <rect x="405" y="350" width="60" height="50" rx="4" fill="#84cc16"/>
  <rect x="470" y="350" width="60" height="50" rx="4" fill="#22c55e"/>
  <rect x="535" y="350" width="60" height="50" rx="4" fill="#22c55e"/>
  <rect x="600" y="350" width="60" height="50" rx="4" fill="#dc2626"/>
  <rect x="665" y="350" width="50" height="50" rx="4" fill="#7c3aed"/>
  <text x="400" y="415" text-anchor="middle" fill="#475569" font-family="Arial" font-size="11">Premium Juices & Smoothies</text>
  
  <!-- Shelf 5 - Teas & Coffees -->
  <rect x="70" y="425" width="660" height="40" fill="#ffffff" stroke="#cbd5e1" stroke-width="1"/>
  <rect x="80" y="430" width="80" height="30" rx="4" fill="#78350f"/>
  <rect x="165" y="430" width="80" height="30" rx="4" fill="#78350f"/>
  <rect x="250" y="430" width="80" height="30" rx="4" fill="#166534"/>
  <rect x="335" y="430" width="80" height="30" rx="4" fill="#166534"/>
  <rect x="420" y="430" width="80" height="30" rx="4" fill="#0f766e"/>
  <rect x="505" y="430" width="80" height="30" rx="4" fill="#0f766e"/>
  <rect x="590" y="430" width="80" height="30" rx="4" fill="#be185d"/>
  <rect x="675" y="430" width="40" height="30" rx="4" fill="#be185d"/>
</svg>
