<svg xmlns="http://www.w3.org/2000/svg" viewBox="0 0 800 500" fill="none">
  <!-- Background -->
  <rect width="800" height="500" fill="#faf5ff"/>
  
  <!-- Display Frame -->
  <rect x="50" y="30" width="700" height="440" rx="8" fill="#f3e8ff" stroke="#a855f7" stroke-width="2"/>
  
  <!-- Header -->
  <rect x="50" y="30" width="700" height="40" rx="8" fill="#7c3aed"/>
  <text x="400" y="57" text-anchor="middle" fill="white" font-family="Arial" font-size="16" font-weight="bold">HOME ACCENT SHELF - END CAP</text>
  
  <!-- Shelf 1 - Vases & Decorative Pieces -->
  <rect x="70" y="85" width="660" height="95" fill="#ffffff" stroke="#e9d5ff" stroke-width="1"/>
  <ellipse cx="120" cy="135" rx="25" ry="40" fill="#c4b5fd"/>
  <ellipse cx="180" cy="135" rx="20" ry="35" fill="#a78bfa"/>
  <ellipse cx="240" cy="135" rx="30" ry="40" fill="#8b5cf6"/>
  <rect x="290" y="105" width="50" height="60" rx="4" fill="#fcd34d"/>
  <rect x="350" y="100" width="40" height="65" rx="4" fill="#f0abfc"/>
  <ellipse cx="430" cy="135" rx="25" ry="40" fill="#67e8f9"/>
  <ellipse cx="490" cy="135" rx="30" ry="35" fill="#5eead4"/>
  <rect x="540" y="105" width="45" height="60" rx="4" fill="#fda4af"/>
  <ellipse cx="620" cy="135" rx="25" ry="40" fill="#c4b5fd"/>
  <ellipse cx="680" cy="135" rx="25" ry="35" fill="#a78bfa"/>
  <text x="400" y="175" text-anchor="middle" fill="#6b21a8" font-family="Arial" font-size="10">Decorative Vases & Accents</text>
  
  <!-- Shelf 2 - Picture Frames -->
  <rect x="70" y="190" width="660" height="80" fill="#ffffff" stroke="#e9d5ff" stroke-width="1"/>
  <rect x="90" y="200" width="55" height="60" fill="#fef3c7" stroke="#d97706" stroke-width="2"/>
  <rect x="155" y="205" width="45" height="55" fill="#fef3c7" stroke="#78350f" stroke-width="2"/>
  <rect x="210" y="200" width="55" height="60" fill="#fef3c7" stroke="#d97706" stroke-width="2"/>
  <rect x="275" y="205" width="45" height="55" fill="#e5e7eb" stroke="#374151" stroke-width="2"/>
  <rect x="330" y="200" width="55" height="60" fill="#e5e7eb" stroke="#374151" stroke-width="2"/>
  <rect x="395" y="205" width="45" height="55" fill="#fef3c7" stroke="#d97706" stroke-width="2"/>
  <rect x="450" y="200" width="55" height="60" fill="#fef3c7" stroke="#78350f" stroke-width="2"/>
  <rect x="515" y="205" width="45" height="55" fill="#e5e7eb" stroke="#374151" stroke-width="2"/>
  <rect x="570" y="200" width="55" height="60" fill="#fef3c7" stroke="#d97706" stroke-width="2"/>
  <rect x="635" y="205" width="45" height="55" fill="#e5e7eb" stroke="#374151" stroke-width="2"/>
  <rect x="690" y="200" width="30" height="60" fill="#fef3c7" stroke="#d97706" stroke-width="2"/>
  <text x="400" y="265" text-anchor="middle" fill="#6b21a8" font-family="Arial" font-size="10">Picture Frames</text>
  
  <!-- Shelf 3 - Candles & Holders -->
  <rect x="70" y="280" width="660" height="80" fill="#ffffff" stroke="#e9d5ff" stroke-width="1"/>
  <rect x="90" y="300" width="25" height="50" rx="2" fill="#fef3c7" stroke="#d97706"/>
  <rect x="125" y="295" width="30" height="55" rx="2" fill="#fecaca" stroke="#dc2626"/>
  <rect x="165" y="300" width="25" height="50" rx="2" fill="#d1fae5" stroke="#10b981"/>
  <rect x="200" y="295" width="30" height="55" rx="2" fill="#fef3c7" stroke="#d97706"/>
  <rect x="240" y="300" width="25" height="50" rx="2" fill="#e0e7ff" stroke="#6366f1"/>
  <rect x="275" y="295" width="30" height="55" rx="2" fill="#fce7f3" stroke="#ec4899"/>
  <rect x="315" y="300" width="25" height="50" rx="2" fill="#fef3c7" stroke="#d97706"/>
  <rect x="350" y="295" width="30" height="55" rx="2" fill="#d1fae5" stroke="#10b981"/>
  <rect x="390" y="300" width="25" height="50" rx="2" fill="#fecaca" stroke="#dc2626"/>
  <rect x="425" y="295" width="30" height="55" rx="2" fill="#fef3c7" stroke="#d97706"/>
  <rect x="465" y="300" width="25" height="50" rx="2" fill="#e0e7ff" stroke="#6366f1"/>
  <rect x="500" y="295" width="30" height="55" rx="2" fill="#fce7f3" stroke="#ec4899"/>
  <rect x="540" y="300" width="25" height="50" rx="2" fill="#fef3c7" stroke="#d97706"/>
  <rect x="575" y="295" width="30" height="55" rx="2" fill="#d1fae5" stroke="#10b981"/>
  <rect x="615" y="300" width="25" height="50" rx="2" fill="#fecaca" stroke="#dc2626"/>
  <rect x="650" y="295" width="30" height="55" rx="2" fill="#fef3c7" stroke="#d97706"/>
  <rect x="690" y="300" width="25" height="50" rx="2" fill="#e0e7ff" stroke="#6366f1"/>
  <text x="400" y="355" text-anchor="middle" fill="#6b21a8" font-family="Arial" font-size="10">Candles & Holders</text>
  
  <!-- Shelf 4 - Decorative Boxes & Baskets -->
  <rect x="70" y="370" width="660" height="90" fill="#ffffff" stroke="#e9d5ff" stroke-width="1"/>
  <rect x="90" y="390" width="80" height="55" rx="6" fill="#d6d3d1" stroke="#78716c" stroke-width="2"/>
  <rect x="180" y="390" width="70" height="55" rx="6" fill="#fef3c7" stroke="#d97706" stroke-width="2"/>
  <rect x="260" y="395" width="60" height="50" rx="6" fill="#e5e7eb" stroke="#6b7280" stroke-width="2"/>
  <rect x="330" y="390" width="80" height="55" rx="6" fill="#fde68a" stroke="#ca8a04" stroke-width="2"/>
  <rect x="420" y="395" width="60" height="50" rx="6" fill="#d6d3d1" stroke="#78716c" stroke-width="2"/>
  <rect x="490" y="390" width="70" height="55" rx="6" fill="#fef3c7" stroke="#d97706" stroke-width="2"/>
  <rect x="570" y="395" width="60" height="50" rx="6" fill="#e5e7eb" stroke="#6b7280" stroke-width="2"/>
  <rect x="640" y="390" width="70" height="55" rx="6" fill="#fde68a" stroke="#ca8a04" stroke-width="2"/>
  <text x="400" y="455" text-anchor="middle" fill="#6b21a8" font-family="Arial" font-size="10">Decorative Boxes & Storage</text>
</svg>
